<?xml version="1.0" standalone="no"?>
<!DOCTYPE svg PUBLIC "-//W3C//DTD SVG 20010904//EN"
 "http://www.w3.org/TR/2001/REC-SVG-20010904/DTD/svg10.dtd">
<svg version="1.0" xmlns="http://www.w3.org/2000/svg"
 width="500.000000pt" height="500.000000pt" viewBox="0 0 500.000000 500.000000"
 preserveAspectRatio="xMidYMid meet">
<metadata>
Created by potrace 1.15, written by Peter Selinger 2001-2017
</metadata>
<g transform="translate(0.000000,500.000000) scale(0.100000,-0.100000)"
fill="#000000" stroke="none">
<path d="M1250 3290 l0 -560 565 0 565 0 0 560 0 560 -565 0 -565 0 0 -560z"/>
<path d="M3001 3381 c56 -4 83 -11 98 -25 12 -11 21 -23 21 -27 0 -4 -11 3
-25 16 -21 22 -33 25 -95 25 -68 0 -70 -1 -70 -25 0 -14 5 -25 10 -25 6 0 10
-27 10 -60 0 -33 -4 -60 -10 -60 -5 0 -10 -11 -10 -25 0 -23 4 -25 44 -25 26
0 48 6 56 15 15 18 4 52 -18 58 -13 4 -12 5 4 6 23 1 34 -16 34 -55 0 -21 4
-24 40 -24 36 0 40 3 40 25 0 14 -3 25 -7 25 -7 0 -9 56 -3 63 1 1 3 19 4 40
2 31 -2 42 -26 62 -26 22 -38 25 -101 23 l-72 -1 76 -6z"/>
<path d="M2485 3315 c-4 -30 -4 -80 0 -110 l6 -55 45 0 c41 0 44 2 45 28 1 15
1 33 0 40 -3 21 6 13 28 -24 22 -36 29 -60 10 -34 -7 10 -9 11 -7 2 2 -8 7
-13 11 -13 4 1 20 1 37 1 l29 0 4 85 3 85 0 -87 -1 -88 -30 -6 c-29 -6 -29 -7
-4 -8 41 -2 53 22 52 102 l-1 72 12 -57 c7 -31 16 -62 22 -70 5 -8 1 -5 -8 5
-10 11 -18 15 -18 10 0 -5 12 -20 27 -34 14 -13 23 -18 18 -10 -6 11 -4 13 9
8 10 -4 32 -8 49 -8 30 -2 30 -2 -8 -9 l-40 -8 40 2 c22 0 39 6 38 11 -2 14
27 45 39 42 6 -1 13 5 15 13 4 13 3 13 -7 0 -10 -13 -11 -12 -6 3 3 10 7 42 8
70 l1 52 7 -55 c7 -55 7 -55 8 23 l2 77 -50 0 c-47 0 -50 -2 -50 -25 0 -14 5
-25 10 -25 6 0 10 -25 10 -55 0 -62 -21 -84 -46 -50 -15 20 -19 105 -6 105 4
0 7 -19 6 -42 l-2 -43 6 40 c4 22 5 52 3 68 l-3 27 -89 0 c-88 0 -89 0 -89
-25 0 -14 5 -25 10 -25 7 0 7 -6 1 -18 -6 -11 -6 -24 0 -35 6 -9 8 -17 6 -17
-2 0 -21 27 -41 60 -34 54 -41 60 -71 60 -33 0 -34 -1 -40 -55z"/>
<path d="M2497 3055 c-20 -14 -37 -28 -37 -31 0 -3 5 -2 11 2 8 5 10 -3 7 -25
-4 -28 -2 -32 14 -28 15 4 18 -1 18 -39 0 -24 -4 -44 -10 -44 -5 0 -10 -11
-10 -25 0 -23 3 -25 50 -25 49 0 50 1 50 30 0 18 -5 28 -12 26 -7 -1 -11 -1
-8 1 3 1 4 39 2 83 -4 87 -13 97 -60 64 -13 -9 -25 -14 -28 -11 -3 2 14 14 38
26 24 11 36 21 28 21 -9 0 -32 -11 -53 -25z"/>
<path d="M2635 3070 c-3 -5 -3 -10 1 -10 4 0 -1 -9 -11 -20 -9 -10 -22 -18
-29 -17 -6 1 -11 -4 -10 -10 1 -7 2 -35 3 -62 1 -37 7 -57 27 -80 14 -16 25
-34 24 -38 -1 -16 65 -14 85 2 20 16 20 16 -2 6 -12 -6 -37 -10 -55 -10 -29 1
-28 2 11 9 61 10 81 37 81 110 0 73 -20 100 -81 110 l-44 7 37 2 c26 1 46 -7
70 -25 l33 -26 -33 31 c-33 31 -93 43 -107 21z"/>
<path d="M2809 3073 c-1 -5 -1 -11 -1 -14 1 -4 -8 -15 -18 -24 -28 -26 -26
-55 4 -55 13 0 26 7 30 15 3 8 12 15 21 15 28 0 15 -36 -30 -80 -27 -27 -45
-53 -45 -67 0 -22 3 -23 75 -23 73 0 75 1 75 25 0 20 -5 25 -27 26 -16 1 -32
0 -38 -1 -5 -1 1 10 14 24 30 32 41 34 15 4 -17 -21 -16 -21 9 1 27 24 36 38
17 26 -5 -3 -10 -2 -10 2 0 16 24 33 47 33 13 0 23 6 23 13 0 7 9 13 20 13 11
0 20 -1 20 -2 0 -14 -53 -114 -60 -114 -5 0 -10 -11 -10 -25 0 -23 4 -25 45
-25 45 0 46 0 43 33 -1 18 10 58 25 91 43 93 41 96 -53 96 -76 0 -80 -1 -80
-22 0 -21 -1 -21 -14 -3 -7 10 -32 21 -57 25 -39 7 -41 8 -11 9 18 0 43 -4 55
-10 21 -10 21 -10 3 5 -20 16 -85 22 -87 9z"/>
<path d="M2470 2080 l0 -560 560 0 560 0 0 560 0 560 -560 0 -560 0 0 -560z"/>
<path d="M1709 1295 c-3 -13 -6 -21 -12 -37 -14 -36 -16 -48 -9 -46 4 1 19 -2
35 -6 29 -9 37 -23 12 -23 -8 0 -15 4 -15 8 0 5 -16 8 -35 7 -19 -1 -35 -5
-35 -10 0 -4 -7 -8 -15 -8 -8 0 -15 7 -15 15 0 9 6 12 15 9 9 -4 15 0 15 10 0
9 -7 16 -15 16 -8 0 -15 8 -15 18 0 13 2 14 9 3 7 -11 9 -11 14 0 4 10 6 9 6
-3 1 -29 31 -22 31 7 0 23 -3 25 -47 25 l-48 0 0 -65 0 -65 48 0 c37 0 47 3
47 17 0 15 1 15 18 0 34 -31 82 -15 82 26 0 12 -11 23 -30 30 -16 6 -30 17
-30 24 0 16 5 16 30 1 10 -7 22 -9 26 -5 12 12 -17 37 -45 38 -24 2 -24 2 -3
6 13 3 31 -1 40 -9 15 -12 16 -11 3 5 -12 15 -59 25 -62 12z"/>
<path d="M2545 1290 l20 -9 -20 0 c-15 -1 -24 -14 -36 -49 -9 -26 -20 -55 -24
-64 -6 -15 -2 -18 20 -18 22 0 25 3 20 20 -5 16 -2 20 17 19 19 0 20 -2 5 -7
-16 -7 -16 -9 -2 -27 10 -13 14 -15 12 -5 -2 8 -2 12 0 8 3 -5 15 -8 28 -8 29
0 38 24 33 88 -3 47 -3 47 30 50 19 2 41 0 50 -4 10 -4 20 -6 24 -6 13 3 21
-47 15 -89 -5 -36 -3 -39 19 -39 21 0 23 3 18 30 -6 26 -3 30 14 30 12 0 25 8
31 18 7 13 9 6 7 -28 -3 -55 9 -78 39 -73 25 5 26 -1 29 -90 1 -52 3 -57 23
-57 20 0 22 4 18 33 l-5 32 10 -29 c12 -38 4 -49 -31 -44 -15 3 -26 1 -23 -4
8 -13 51 -9 64 7 6 8 9 19 5 25 -4 6 1 18 11 26 18 13 18 14 -1 8 -17 -6 -17
-4 3 11 16 12 21 23 16 37 -5 16 -3 19 7 12 12 -6 12 -5 0 9 -13 17 -26 24
-18 10 3 -5 -16 -6 -41 -4 l-47 5 53 7 c71 9 79 20 12 16 -30 -2 -68 -1 -84 3
-31 6 -31 6 -27 64 2 37 -1 56 -7 52 -5 -3 -12 0 -15 7 -3 8 1 14 9 14 19 0
28 -38 21 -88 -5 -36 -3 -39 19 -39 21 0 23 3 18 33 -5 30 -5 31 10 13 9 -11
16 -26 16 -33 0 -7 6 -13 13 -13 15 0 41 39 32 48 -3 4 -10 1 -14 -7 -6 -9
-10 -7 -14 8 -3 12 -1 24 4 27 6 3 7 15 3 26 -5 16 -3 19 7 13 8 -5 5 1 -5 13
-19 22 -89 32 -100 14 -3 -5 -29 -9 -58 -9 -52 -1 -52 -1 -13 7 l40 7 -35 2
c-20 0 -41 -4 -47 -10 -8 -8 -13 -8 -17 0 -10 15 -81 14 -94 -2 -6 -7 -9 -23
-5 -35 3 -12 2 -34 -2 -49 l-7 -28 -13 31 c-25 59 -28 77 -14 68 12 -6 12 -5
0 9 -7 9 -21 17 -30 16 -12 0 -11 -2 4 -9z"/>
<path d="M2123 1283 c5 -8 -5 -10 -34 -6 -45 6 -58 -4 -59 -47 -1 -53 -17 -53
-36 -1 -24 68 -43 66 -72 -7 -12 -32 -22 -61 -22 -65 0 -12 48 -7 53 6 4 10 7
10 18 0 7 -7 23 -13 35 -13 12 0 25 6 27 13 4 10 6 10 6 0 1 -7 12 -13 26 -13
19 0 25 5 25 21 0 11 -4 17 -10 14 -5 -3 -10 1 -10 10 0 25 24 12 30 -16 3
-13 14 -25 23 -27 19 -4 22 10 8 36 -6 11 -6 32 0 52 l8 35 -3 -35 c-4 -42 7
-69 38 -92 30 -22 82 -36 72 -19 -4 6 -17 11 -30 11 -20 0 -52 26 -70 57 -3 6
-2 23 3 36 8 20 6 29 -11 44 -12 10 -18 13 -15 6z"/>
<path d="M1635 1110 c2 -3 0 -24 -5 -48 -4 -23 -4 -42 1 -42 4 0 10 17 12 38
l4 37 1 -42 c2 -36 -1 -43 -17 -43 -14 0 -20 9 -23 36 -2 19 0 37 4 40 16 10
7 24 -16 24 -28 0 -37 -17 -34 -68 1 -37 1 -36 8 8 7 44 7 45 8 8 1 -20 5 -44
9 -54 5 -13 3 -15 -8 -9 -12 8 -12 6 0 -8 15 -19 26 -23 15 -5 -5 8 -2 9 10 5
10 -4 25 -7 34 -8 11 -1 8 -4 -8 -10 -23 -7 -24 -8 -2 -6 12 1 21 5 20 8 -4 9
23 40 31 35 3 -2 5 17 4 42 l-1 47 7 -40 c5 -22 9 -32 10 -22 0 9 7 17 14 17
9 0 9 2 1 8 -9 5 -8 10 1 19 10 10 14 4 17 -28 2 -22 0 -43 -4 -45 -18 -11 -6
-25 20 -22 24 3 27 7 30 47 3 35 6 42 21 38 14 -3 17 1 14 22 -4 23 -3 24 8 7
6 -11 9 -39 7 -67 -5 -46 -3 -49 17 -49 26 0 35 17 35 68 0 60 -5 63 -132 65
-64 1 -115 0 -113 -3z"/>
<path d="M2033 1112 c-18 -2 -33 -7 -33 -13 0 -5 5 -9 10 -9 11 0 14 -73 3
-83 -3 -4 -12 1 -20 11 -10 12 -16 14 -19 5 -3 -7 -14 -13 -25 -13 -16 0 -19
7 -17 43 l1 42 4 -37 c2 -21 8 -38 12 -38 4 0 5 19 2 43 -5 37 -9 42 -33 45
-27 3 -36 -7 -21 -21 3 -4 6 -23 6 -42 0 -19 -3 -38 -6 -42 -18 -18 0 -23 78
-23 69 0 85 3 85 15 0 8 -4 15 -10 15 -5 0 -10 19 -10 43 0 28 3 37 9 28 7
-11 10 -9 14 10 4 23 4 22 6 -3 1 -25 5 -29 29 -27 4 0 6 6 4 13 -1 7 5 13 13
13 21 0 19 -4 -15 -44 -48 -54 -42 -63 46 -63 71 0 75 1 69 20 -5 17 -2 20 20
20 22 0 25 -3 20 -20 -5 -16 -2 -20 19 -20 14 0 26 6 26 13 0 8 4 7 10 -3 16
-25 10 3 -6 30 -8 14 -13 17 -10 8 3 -10 2 -18 -3 -18 -5 0 -14 21 -21 46 -9
30 -20 49 -34 54 -24 9 -39 3 -30 -11 7 -11 -14 -80 -29 -94 -7 -7 -8 -4 -3
10 16 42 18 50 6 33 -6 -10 -20 -18 -31 -18 -11 0 -18 -4 -15 -8 3 -5 -1 -9
-9 -9 -11 0 -9 7 6 28 11 16 24 31 29 34 6 4 10 12 10 20 0 14 -74 23 -137 17z"/>
<path d="M2562 1112 c-20 -2 -38 -12 -48 -27 -17 -26 -14 -89 6 -108 10 -10
11 -9 5 2 -6 11 -4 13 9 8 10 -4 27 -8 39 -8 17 -1 15 -3 -8 -9 l-30 -9 30 2
c17 1 29 7 28 12 -1 6 4 17 11 25 29 34 26 80 -8 102 -8 5 -7 8 1 8 7 0 19
-12 28 -27 l16 -28 -6 30 c-4 25 -4 27 6 11 6 -10 9 -40 7 -67 -5 -46 -4 -49
18 -49 21 0 22 4 18 38 l-5 37 23 -37 c32 -53 48 -49 48 11 0 27 3 56 6 65 5
12 0 16 -20 16 -20 0 -26 -5 -26 -22 0 -19 2 -20 10 -8 7 11 10 6 9 -20 l0
-35 -22 43 c-14 28 -28 42 -41 43 -12 0 -32 1 -46 3 -14 1 -40 0 -58 -2z"/>
<path d="M3116 1110 c-1 -3 -1 -26 -1 -52 1 -27 -1 -48 -5 -48 -4 0 -13 21
-21 48 -20 64 -46 64 -68 0 -9 -26 -19 -50 -23 -54 -15 -14 -8 -24 18 -24 21
0 24 4 19 20 -5 17 -2 20 20 20 22 0 25 -3 20 -20 -5 -16 -2 -20 19 -20 31 0
41 30 33 93 -4 33 -3 38 5 23 6 -10 8 -40 6 -67 -5 -46 -4 -49 18 -49 21 0 23
3 17 32 -4 21 -3 29 5 24 6 -4 8 -14 5 -23 -4 -11 -3 -14 5 -9 7 4 12 1 12 -8
0 -9 9 -16 20 -16 11 0 20 7 20 15 0 8 -4 15 -9 15 -13 0 -20 37 -9 48 6 6 7
19 3 29 -5 10 -8 20 -7 23 0 3 -22 5 -50 5 -27 0 -51 -2 -52 -5z"/>
</g>
</svg>
